Coordinates
version=1
nRows=6
nColumns=36
inDegrees=yes

Units are S.I. units (second, meters, Newtons, ...)
If the header above contains a line with 'inDegrees', this indicates whether rotational values are in degrees (yes) or radians (no).

endheader
time	pelvis_tilt	pelvis_list	pelvis_rotation	pelvis_tx	pelvis_ty	pelvis_tz	hip_flexion_r	hip_adduction_r	hip_rotation_r	knee_angle_r	knee_angle_r_beta	ankle_angle_r	subtalar_angle_r	mtp_angle_r	hip_flexion_l	hip_adduction_l	hip_rotation_l	knee_angle_l	knee_angle_l_beta	ankle_angle_l	subtalar_angle_l	mtp_angle_l	lumbar_extension	lumbar_bending	lumbar_rotation	arm_flex_r	arm_add_r	arm_rot_r	elbow_flex_r	pro_sup_r	arm_flex_l	arm_add_l	arm_rot_l	elbow_flex_l	pro_sup_l
      4.45000000	    -16.78178050	      2.44659488	     -9.38984131	      0.81428566	      0.82615561	      0.11571339	     48.79302186	     -5.17414792	     -4.11757433	     67.93064996	      1.18561350	     32.98720262	    -12.62347980	     -7.49999987	     49.15447247	     -0.60167792	      2.82729438	     69.08679720	      1.20579208	     35.41459004	     -9.99298996	     -7.49999987	    -13.52217913	      1.01853504	     -3.77216625	     -7.90087836	    -10.13540204	      2.52391440	     33.10158657	     65.71664375	     -2.17358044	    -11.25203863	      5.17073226	     28.66498426	     67.07417172
      4.46666670	    -15.81558556	      2.62685948	     -9.97218229	      0.81085437	      0.82480282	      0.11586106	     48.12260403	     -5.06009317	     -3.70508818	     68.20164936	      1.19034334	     33.61246580	    -12.70332659	     -7.49999987	     48.04146715	     -0.65949345	      2.14298460	     68.92211774	      1.20291788	     35.20352357	    -11.17331149	     -7.49999987	    -13.87152074	      0.33061511	     -2.40765086	     -6.72029010	    -10.15732403	      3.45156749	     32.94846420	     65.98435860	     -1.37547364	    -10.63901024	      5.40837665	     27.84043519	     67.10229133
      4.48333330	    -15.52677985	      2.71839822	    -10.12588025	      0.81696911	      0.82037297	      0.11879430	     47.76456142	     -5.10906331	     -3.66023869	     68.26023680	      1.19136588	     33.75393911	    -13.23237456	     -7.49999987	     47.08804085	     -0.63808781	      1.86038146	     68.20311798	      1.19036897	     34.65622774	    -11.87937940	     -7.49999987	    -12.69471748	     -0.17216573	     -1.83664735	     -5.30962545	    -10.29458601	      5.43083631	     33.08697387	     66.27014460	     -0.95987122	    -10.51259492	      6.62211564	     26.64427448	     66.87888414
      4.50000000	    -14.89383954	      2.76315984	    -10.11572596	      0.81615789	      0.83035254	      0.11960016	     45.99561975	     -5.14298723	     -3.69155903	     66.74042696	      1.16484019	     33.36982729	    -13.77390265	     -7.49999987	     45.29658445	     -0.52035979	      1.64730421	     66.53962938	      1.16133562	     33.53177108	    -12.28258690	     -7.49999987	    -11.47482775	     -0.61763341	     -1.55566555	     -4.12119912	    -10.20062169	      6.15578396	     33.78564580	     66.49921990	     -1.74612813	     -9.99892504	      7.22372409	     25.49225229	     66.84269127
      4.51666670	    -14.37658420	      2.64873073	     -9.96602789	      0.81651788	      0.84255288	      0.11886816	     43.67547729	     -5.10198856	     -4.05317608	     64.03106031	      1.11755283	     32.11651543	    -14.35505806	     -7.49999987	     43.13519759	     -0.57381419	      1.52591777	     64.09515274	      1.11867145	     31.84617376	    -12.27812655	     -7.49999987	    -10.32952765	     -0.71020594	     -1.43049573	     -2.64271279	    -10.87909208	      8.79481986	     33.58247349	     67.09636736	     -1.87618573	     -9.62052970	      8.94188500	     23.58348493	     66.37131903
      4.53333330	    -13.99541888	      2.53605768	     -9.89940220	      0.82322101	      0.85790298	      0.11705794	     41.35409933	     -5.04860832	     -4.56983456	     60.90660821	      1.06302085	     30.68990569	    -14.83515618	     -7.49999987	     40.89323668	     -0.62680289	      1.37861417	     60.88073711	      1.06256931	     30.13276381	    -12.21596738	     -7.49999987	     -9.20372881	     -0.63444977	     -1.52851559	     -1.73746121	    -10.93614313	      8.86145570	     32.98097376	     66.94852859	     -2.57531717	     -9.22979065	      8.97892262	     22.82181724	     65.90729462
